<svg xmlns="http://www.w3.org/2000/svg" viewBox="0 0 100 100" width="100" height="100">
  <path fill="#2196F3" opacity="0.8" d="M50,10 C30,10 15,25 15,45 C15,65 30,80 50,80 C70,80 85,65 85,45 C85,25 70,10 50,10 Z M35,30 C38,30 40,32 40,35 C40,38 38,40 35,40 C32,40 30,38 30,35 C30,32 32,30 35,30 Z M65,30 C68,30 70,32 70,35 C70,38 68,40 65,40 C62,40 60,38 60,35 C60,32 62,30 65,30 Z M50,45 C55,45 60,50 60,55 C60,60 55,65 50,65 C45,65 40,60 40,55 C40,50 45,45 50,45 Z M25,50 C28,50 30,52 30,55 C30,58 28,60 25,60 C22,60 20,58 20,55 C20,52 22,50 25,50 Z M75,50 C78,50 80,52 80,55 C80,58 78,60 75,60 C72,60 70,58 70,55 C70,52 72,50 75,50 Z"/>
  <path fill="none" stroke="#0D47A1" stroke-width="2" d="M30,70 C35,75 42,78 50,78 C58,78 65,75 70,70"/>
  <path fill="none" stroke="#0D47A1" stroke-width="2" d="M40,20 C43,18 46,17 50,17 C54,17 57,18 60,20"/>
</svg>