<svg xmlns="http://www.w3.org/2000/svg" viewBox="0 0 200 200" width="200" height="200">
  <path fill="none" stroke="#FF9800" stroke-width="2" opacity="0.7" d="M100,20 C110,20 120,30 120,40 C120,50 110,60 100,60 C90,60 80,50 80,40 C80,30 90,20 100,20 Z" />
  <path fill="none" stroke="#FF9800" stroke-width="2" opacity="0.7" d="M100,60 L100,80" />
  <path fill="none" stroke="#FF9800" stroke-width="2" opacity="0.7" d="M100,80 C120,80 140,100 140,120 C140,140 120,160 100,160 C80,160 60,140 60,120 C60,100 80,80 100,80 Z" />
  <path fill="none" stroke="#FF9800" stroke-width="1.5" opacity="0.7" d="M140,120 L180,100 M140,120 L180,120 M140,120 L180,140" />
  <path fill="none" stroke="#FF9800" stroke-width="1.5" opacity="0.7" d="M60,120 L20,100 M60,120 L20,120 M60,120 L20,140" />
  <path fill="none" stroke="#FF9800" stroke-width="1.5" opacity="0.7" d="M100,160 L80,190 M100,160 L100,190 M100,160 L120,190" />
  <circle cx="100" cy="40" r="15" fill="#FF9800" opacity="0.3" />
  <circle cx="100" cy="120" r="25" fill="#FF9800" opacity="0.3" />
</svg>